<?xml version="1.0" standalone="no"?>
<!DOCTYPE svg PUBLIC "-//W3C//DTD SVG 20010904//EN"
 "http://www.w3.org/TR/2001/REC-SVG-20010904/DTD/svg10.dtd">
<svg version="1.0" xmlns="http://www.w3.org/2000/svg"
 width="402.000000pt" height="402.000000pt" viewBox="0 0 402.000000 402.000000"
 preserveAspectRatio="xMidYMid meet">
<metadata>
Created by potrace 1.14, written by Peter Selinger 2001-2017
</metadata>
<g transform="translate(0.000000,402.000000) scale(0.100000,-0.100000)"
fill="#000000" stroke="none">
<path d="M1770 3410 c-166 -16 -210 -23 -330 -46 -69 -14 -145 -35 -169 -47
-110 -55 -136 -157 -135 -547 0 -426 32 -579 134 -631 34 -18 50 -22 135 -34
22 -4 51 -8 65 -10 14 -2 57 -7 95 -10 39 -4 84 -9 100 -11 49 -6 314 -17 400
-17 128 0 406 15 505 27 30 4 75 9 100 12 94 11 182 34 211 54 82 59 114 234
113 630 -1 395 -31 501 -160 551 -41 15 -208 47 -344 66 -127 17 -595 25 -720
13z"/>
<path d="M340 1966 c-193 -57 -291 -160 -327 -346 -15 -75 -6 -232 17 -299 53
-157 147 -232 300 -237 41 -2 95 1 119 7 24 5 45 8 46 7 2 -2 -7 -34 -20 -73
-19 -56 -23 -89 -21 -165 2 -103 12 -134 62 -184 95 -94 297 -108 419 -29 112
72 179 226 179 416 0 20 3 37 6 37 3 1 34 3 70 5 36 3 85 7 109 10 44 6 44 6
37 -22 -26 -104 -34 -167 -31 -229 8 -168 99 -261 262 -268 224 -9 347 145
408 514 14 85 17 313 5 392 -34 222 -139 371 -311 438 -100 40 -181 50 -374
45 -179 -4 -210 -7 -315 -26 -30 -6 -61 -11 -67 -12 -7 0 -13 -4 -13 -9 0 -4
6 -8 13 -8 23 -1 142 -105 142 -125 0 -34 -32 -28 -72 13 -65 65 -181 135
-246 148 -12 2 -33 7 -47 10 -14 4 -81 8 -150 9 -105 2 -137 -1 -200 -19z"/>
<path d="M2688 1985 c-2 -1 -52 -6 -113 -9 -274 -16 -327 -28 -385 -86 -122
-122 -49 -371 115 -395 22 -3 51 -7 65 -10 14 -2 45 -4 70 -5 l45 -1 -77 -37
c-195 -94 -287 -216 -289 -382 -4 -242 105 -389 331 -446 100 -25 285 -23 400
4 100 25 197 102 239 192 22 47 26 69 26 155 0 79 -4 108 -19 139 -26 52 -79
101 -138 128 -32 15 -47 26 -43 36 3 7 5 15 5 17 0 10 87 -19 118 -39 94 -60
131 -128 148 -271 11 -94 15 -110 43 -172 67 -143 208 -214 416 -207 100 3
177 30 239 86 51 44 100 130 112 194 3 21 8 48 11 59 9 48 2 175 -13 224 -34
115 -134 219 -271 282 -29 13 -52 27 -53 32 0 4 17 7 38 8 142 3 216 40 264
130 32 62 32 177 -2 236 -51 92 -102 109 -395 130 -77 5 -881 13 -887 8z"/>
</g>
</svg>
