<svg xmlns="http://www.w3.org/2000/svg" viewBox="0 0 327.18 115.53"><defs><style>.cls-1{font-size:94.56px;font-family:LOTTERIACHAB, LOTTERIA CHAB;}.cls-1,.cls-4{fill:#f05722;}.cls-2{fill:#ee5e9d;}.cls-2,.cls-3{letter-spacing:0em;}.cls-3{fill:#f4a31d;}.cls-12,.cls-5,.cls-7,.cls-8{fill:none;}.cls-5,.cls-7{stroke:#fff;stroke-width:1.5px;}.cls-5,.cls-7,.cls-8{stroke-linecap:round;}.cls-11,.cls-12,.cls-5{stroke-miterlimit:10;}.cls-6{fill:#fff;}.cls-7,.cls-8{stroke-linejoin:round;}.cls-11,.cls-12,.cls-8{stroke:#231f20;}.cls-8{stroke-width:3px;}.cls-9{font-size:10.44px;fill:#000333;font-family:AdobeMyungjoStd-Medium-KSCpc-EUC-H, Adobe Myungjo Std;}.cls-10{font-size:20.88px;}.cls-11{fill:#231f20;stroke-width:0.5px;font-size:24.36px;}.cls-12{stroke-width:0.25px;}</style></defs><title>Asset 1</title><g id="Layer_2" data-name="Layer 2"><g id="Layer_1-2" data-name="Layer 1"><g id="시안1"><g id="모꼬지"><text class="cls-1" transform="translate(28.33 80.07)">ㅁ<tspan class="cls-2" x="89.83" y="0">ㄲ</tspan><tspan class="cls-3" x="179.66" y="0">ㅈ</tspan></text><g id="주황색_얼굴" data-name="주황색 얼굴"><rect class="cls-4" x="65.54" y="40.58" width="20.58" height="9.51"/><path class="cls-5" d="M84.57,38.06a3.34,3.34,0,0,0-4.71-.39"/><circle class="cls-6" cx="67.91" cy="37.67" r="2.75"/><path class="cls-7" d="M77.91,43.46c0,1.2-1.34,2.17-3,2.17s-3-1-3-2.17"/></g><g id="핑크색_얼굴" data-name="핑크색 얼굴"><circle class="cls-6" cx="159.79" cy="35.31" r="2.75"/><circle class="cls-6" cx="171.92" cy="35.31" r="2.75"/><path class="cls-5" d="M169.34,40c0,1.19-1.46,2.16-3.27,2.16s-3.26-1-3.26-2.16"/></g><g id="노란색_얼굴" data-name="노란색 얼굴"><circle class="cls-6" cx="240.91" cy="25.71" r="2.75"/><circle class="cls-6" cx="253.04" cy="25.71" r="2.75"/><circle class="cls-6" cx="246.69" cy="31.45" r="2.11"/></g></g><path class="cls-8" d="M1.5,49.49l6-7.22a57.13,57.13,0,0,0,9.2-15.18A84.5,84.5,0,0,0,20,17.38L24.25,1.5H302.93l5.15,17.14,2.66,7.63c2,5,3.7,8.11,8.56,14.34L325.68,48"/><text class="cls-9" transform="translate(113.56 111.25)">전통시장에 대한 모든것<tspan class="cls-10" x="111.33" y="0"> </tspan><tspan class="cls-11" x="118.29" y="0">모꼬지</tspan></text><line class="cls-12" x1="28.33" y1="107.56" x2="107.83" y2="107.56"/></g></g></g></svg>